<mxfile host="65bd71144e">
    <diagram id="b56FhtIz4hRtN4RqoFtY" name="Page-1">
        <mxGraphModel dx="1939" dy="1640" grid="1" gridSize="10" guides="1" tooltips="1" connect="1" arrows="1" fold="1" page="1" pageScale="1" pageWidth="850" pageHeight="1100" math="0" shadow="0">
            <root>
                <mxCell id="0"/>
                <mxCell id="1" parent="0"/>
                <mxCell id="7" value="Duck" style="swimlane;fontStyle=1;align=center;verticalAlign=top;childLayout=stackLayout;horizontal=1;startSize=26;horizontalStack=0;resizeParent=1;resizeParentMax=0;resizeLast=0;collapsible=1;marginBottom=0;" vertex="1" parent="1">
                    <mxGeometry x="360" y="20" width="160" height="110" as="geometry">
                        <mxRectangle x="350" y="90" width="100" height="30" as="alternateBounds"/>
                    </mxGeometry>
                </mxCell>
                <mxCell id="9" value="" style="line;strokeWidth=1;fillColor=none;align=left;verticalAlign=middle;spacingTop=-1;spacingLeft=3;spacingRight=3;rotatable=0;labelPosition=right;points=[];portConstraint=eastwest;strokeColor=inherit;" vertex="1" parent="7">
                    <mxGeometry y="26" width="160" height="8" as="geometry"/>
                </mxCell>
                <mxCell id="10" value="+ display() (abstract)&#10;" style="text;strokeColor=none;fillColor=none;align=left;verticalAlign=top;spacingLeft=4;spacingRight=4;overflow=hidden;rotatable=0;points=[[0,0.5],[1,0.5]];portConstraint=eastwest;" vertex="1" parent="7">
                    <mxGeometry y="34" width="160" height="76" as="geometry"/>
                </mxCell>
                <mxCell id="19" value="Extends" style="endArrow=block;endSize=16;endFill=0;html=1;" edge="1" parent="1" source="22" target="7">
                    <mxGeometry width="160" relative="1" as="geometry">
                        <mxPoint x="340.78947368421063" y="210" as="sourcePoint"/>
                        <mxPoint x="400" y="150" as="targetPoint"/>
                    </mxGeometry>
                </mxCell>
                <mxCell id="20" value="Extends" style="endArrow=block;endSize=16;endFill=0;html=1;" edge="1" parent="1" source="26" target="7">
                    <mxGeometry width="160" relative="1" as="geometry">
                        <mxPoint x="574.2592592592591" y="210" as="sourcePoint"/>
                        <mxPoint x="650" y="150" as="targetPoint"/>
                    </mxGeometry>
                </mxCell>
                <mxCell id="22" value="Mallard Duck" style="swimlane;fontStyle=1;align=center;verticalAlign=top;childLayout=stackLayout;horizontal=1;startSize=26;horizontalStack=0;resizeParent=1;resizeParentMax=0;resizeLast=0;collapsible=1;marginBottom=0;" vertex="1" parent="1">
                    <mxGeometry x="130" y="272" width="160" height="86" as="geometry"/>
                </mxCell>
                <mxCell id="23" value="+ field: type" style="text;strokeColor=none;fillColor=none;align=left;verticalAlign=top;spacingLeft=4;spacingRight=4;overflow=hidden;rotatable=0;points=[[0,0.5],[1,0.5]];portConstraint=eastwest;" vertex="1" parent="22">
                    <mxGeometry y="26" width="160" height="26" as="geometry"/>
                </mxCell>
                <mxCell id="24" value="" style="line;strokeWidth=1;fillColor=none;align=left;verticalAlign=middle;spacingTop=-1;spacingLeft=3;spacingRight=3;rotatable=0;labelPosition=right;points=[];portConstraint=eastwest;strokeColor=inherit;" vertex="1" parent="22">
                    <mxGeometry y="52" width="160" height="8" as="geometry"/>
                </mxCell>
                <mxCell id="25" value="+ display()" style="text;strokeColor=none;fillColor=none;align=left;verticalAlign=top;spacingLeft=4;spacingRight=4;overflow=hidden;rotatable=0;points=[[0,0.5],[1,0.5]];portConstraint=eastwest;" vertex="1" parent="22">
                    <mxGeometry y="60" width="160" height="26" as="geometry"/>
                </mxCell>
                <mxCell id="26" value="GoldenEye Duck" style="swimlane;fontStyle=1;align=center;verticalAlign=top;childLayout=stackLayout;horizontal=1;startSize=26;horizontalStack=0;resizeParent=1;resizeParentMax=0;resizeLast=0;collapsible=1;marginBottom=0;" vertex="1" parent="1">
                    <mxGeometry x="370" y="260" width="160" height="140" as="geometry"/>
                </mxCell>
                <mxCell id="27" value="+ field: type" style="text;strokeColor=none;fillColor=none;align=left;verticalAlign=top;spacingLeft=4;spacingRight=4;overflow=hidden;rotatable=0;points=[[0,0.5],[1,0.5]];portConstraint=eastwest;" vertex="1" parent="26">
                    <mxGeometry y="26" width="160" height="26" as="geometry"/>
                </mxCell>
                <mxCell id="28" value="" style="line;strokeWidth=1;fillColor=none;align=left;verticalAlign=middle;spacingTop=-1;spacingLeft=3;spacingRight=3;rotatable=0;labelPosition=right;points=[];portConstraint=eastwest;strokeColor=inherit;" vertex="1" parent="26">
                    <mxGeometry y="52" width="160" height="8" as="geometry"/>
                </mxCell>
                <mxCell id="29" value="+ display()&#10;+ swim()&#10;+ quack()&#10;+ fly()" style="text;strokeColor=none;fillColor=none;align=left;verticalAlign=top;spacingLeft=4;spacingRight=4;overflow=hidden;rotatable=0;points=[[0,0.5],[1,0.5]];portConstraint=eastwest;" vertex="1" parent="26">
                    <mxGeometry y="60" width="160" height="80" as="geometry"/>
                </mxCell>
                <mxCell id="30" value="Rubber Duck" style="swimlane;fontStyle=1;align=center;verticalAlign=top;childLayout=stackLayout;horizontal=1;startSize=26;horizontalStack=0;resizeParent=1;resizeParentMax=0;resizeLast=0;collapsible=1;marginBottom=0;" vertex="1" parent="1">
                    <mxGeometry x="580" y="232" width="160" height="110" as="geometry"/>
                </mxCell>
                <mxCell id="31" value="+ field: type" style="text;strokeColor=none;fillColor=none;align=left;verticalAlign=top;spacingLeft=4;spacingRight=4;overflow=hidden;rotatable=0;points=[[0,0.5],[1,0.5]];portConstraint=eastwest;" vertex="1" parent="30">
                    <mxGeometry y="26" width="160" height="26" as="geometry"/>
                </mxCell>
                <mxCell id="32" value="" style="line;strokeWidth=1;fillColor=none;align=left;verticalAlign=middle;spacingTop=-1;spacingLeft=3;spacingRight=3;rotatable=0;labelPosition=right;points=[];portConstraint=eastwest;strokeColor=inherit;" vertex="1" parent="30">
                    <mxGeometry y="52" width="160" height="8" as="geometry"/>
                </mxCell>
                <mxCell id="33" value="+ swim()&#10;+ quack()&#10;+ display()" style="text;strokeColor=none;fillColor=none;align=left;verticalAlign=top;spacingLeft=4;spacingRight=4;overflow=hidden;rotatable=0;points=[[0,0.5],[1,0.5]];portConstraint=eastwest;" vertex="1" parent="30">
                    <mxGeometry y="60" width="160" height="50" as="geometry"/>
                </mxCell>
                <mxCell id="34" value="Extends" style="endArrow=block;endSize=16;endFill=0;html=1;" edge="1" parent="1" source="30" target="10">
                    <mxGeometry width="160" relative="1" as="geometry">
                        <mxPoint x="479.5238095238095" y="240" as="sourcePoint"/>
                        <mxPoint x="460.4761904761905" y="140" as="targetPoint"/>
                    </mxGeometry>
                </mxCell>
                <mxCell id="35" value="&lt;p style=&quot;margin:0px;margin-top:4px;text-align:center;&quot;&gt;&lt;i&gt;&amp;lt;&amp;lt;Interface&amp;gt;&amp;gt;&lt;/i&gt;&lt;br&gt;&lt;b&gt;Flyable&lt;/b&gt;&lt;/p&gt;&lt;p style=&quot;margin:0px;margin-left:4px;&quot;&gt;&lt;br&gt;&lt;/p&gt;&lt;hr size=&quot;1&quot;&gt;&lt;p style=&quot;margin:0px;margin-left:4px;&quot;&gt;+ fly()&lt;/p&gt;" style="verticalAlign=top;align=left;overflow=fill;fontSize=12;fontFamily=Helvetica;html=1;" vertex="1" parent="1">
                    <mxGeometry x="580" y="-30" width="190" height="140" as="geometry"/>
                </mxCell>
                <mxCell id="36" value="&lt;p style=&quot;margin:0px;margin-top:4px;text-align:center;&quot;&gt;&lt;i&gt;&amp;lt;&amp;lt;Interface&amp;gt;&amp;gt;&lt;/i&gt;&lt;br&gt;&lt;b&gt;Quackable&lt;/b&gt;&lt;/p&gt;&lt;p style=&quot;margin:0px;margin-left:4px;&quot;&gt;&lt;br&gt;&lt;/p&gt;&lt;hr size=&quot;1&quot;&gt;&lt;p style=&quot;margin:0px;margin-left:4px;&quot;&gt;+ quack()&lt;/p&gt;" style="verticalAlign=top;align=left;overflow=fill;fontSize=12;fontFamily=Helvetica;html=1;" vertex="1" parent="1">
                    <mxGeometry x="120" y="-40" width="190" height="140" as="geometry"/>
                </mxCell>
                <mxCell id="37" value="&lt;p style=&quot;margin:0px;margin-top:4px;text-align:center;&quot;&gt;&lt;i&gt;&amp;lt;&amp;lt;Interface&amp;gt;&amp;gt;&lt;/i&gt;&lt;br&gt;&lt;b&gt;Swimable&lt;/b&gt;&lt;/p&gt;&lt;p style=&quot;margin:0px;margin-left:4px;&quot;&gt;&lt;br&gt;&lt;/p&gt;&lt;hr size=&quot;1&quot;&gt;&lt;p style=&quot;margin:0px;margin-left:4px;&quot;&gt;+ swim()&lt;/p&gt;" style="verticalAlign=top;align=left;overflow=fill;fontSize=12;fontFamily=Helvetica;html=1;" vertex="1" parent="1">
                    <mxGeometry x="-100" y="-40" width="190" height="140" as="geometry"/>
                </mxCell>
                <mxCell id="38" value="" style="endArrow=block;dashed=1;endFill=0;endSize=12;html=1;" edge="1" parent="1" source="30" target="36">
                    <mxGeometry width="160" relative="1" as="geometry">
                        <mxPoint x="650" y="180" as="sourcePoint"/>
                        <mxPoint x="810" y="180" as="targetPoint"/>
                    </mxGeometry>
                </mxCell>
                <mxCell id="39" value="" style="endArrow=block;dashed=1;endFill=0;endSize=12;html=1;" edge="1" parent="1" source="30" target="37">
                    <mxGeometry width="160" relative="1" as="geometry">
                        <mxPoint x="560" y="380" as="sourcePoint"/>
                        <mxPoint x="720" y="380" as="targetPoint"/>
                    </mxGeometry>
                </mxCell>
                <mxCell id="40" value="" style="endArrow=block;dashed=1;endFill=0;endSize=12;html=1;" edge="1" parent="1" source="26" target="36">
                    <mxGeometry width="160" relative="1" as="geometry">
                        <mxPoint x="570" y="390" as="sourcePoint"/>
                        <mxPoint x="730" y="390" as="targetPoint"/>
                    </mxGeometry>
                </mxCell>
                <mxCell id="41" value="" style="endArrow=block;dashed=1;endFill=0;endSize=12;html=1;" edge="1" parent="1" source="26" target="37">
                    <mxGeometry width="160" relative="1" as="geometry">
                        <mxPoint x="580" y="400" as="sourcePoint"/>
                        <mxPoint x="740" y="400" as="targetPoint"/>
                    </mxGeometry>
                </mxCell>
                <mxCell id="42" value="" style="endArrow=block;dashed=1;endFill=0;endSize=12;html=1;" edge="1" parent="1" source="22" target="35">
                    <mxGeometry width="160" relative="1" as="geometry">
                        <mxPoint x="220" y="430" as="sourcePoint"/>
                        <mxPoint x="380" y="430" as="targetPoint"/>
                    </mxGeometry>
                </mxCell>
                <mxCell id="43" value="" style="endArrow=block;dashed=1;endFill=0;endSize=12;html=1;" edge="1" parent="1" source="22" target="36">
                    <mxGeometry width="160" relative="1" as="geometry">
                        <mxPoint x="600" y="420" as="sourcePoint"/>
                        <mxPoint x="760" y="420" as="targetPoint"/>
                    </mxGeometry>
                </mxCell>
                <mxCell id="44" value="" style="endArrow=block;dashed=1;endFill=0;endSize=12;html=1;" edge="1" parent="1" source="22" target="37">
                    <mxGeometry width="160" relative="1" as="geometry">
                        <mxPoint x="610" y="430" as="sourcePoint"/>
                        <mxPoint x="770" y="430" as="targetPoint"/>
                    </mxGeometry>
                </mxCell>
                <mxCell id="46" value="" style="endArrow=block;dashed=1;endFill=0;endSize=12;html=1;" edge="1" parent="1" source="26" target="35">
                    <mxGeometry width="160" relative="1" as="geometry">
                        <mxPoint x="360" y="430" as="sourcePoint"/>
                        <mxPoint x="520" y="430" as="targetPoint"/>
                    </mxGeometry>
                </mxCell>
            </root>
        </mxGraphModel>
    </diagram>
</mxfile>